<svg id="Layer_1" data-name="Layer 1" xmlns="http://www.w3.org/2000/svg" viewBox="0 0 100 100"><title>Artboard 6</title><path d="M84.84,75.49,56.25,45.87,73.74,28.38l3.18,3.18A1.5,1.5,0,0,0,78,32h.17a1.5,1.5,0,0,0,1.1-.7l6.52-10.43A1.5,1.5,0,0,0,85.56,19L81,14.44a1.5,1.5,0,0,0-1.86-.21L68.71,20.75a1.5,1.5,0,0,0-.27,2.33l3.18,3.18L54.17,43.71,40.85,29.92A15.33,15.33,0,0,0,22.75,9a1.5,1.5,0,0,0-.68,2.49L28.31,18l-1.63,5.74-5.76,1.45-6.23-6.45a1.5,1.5,0,0,0-2.51.6,15.4,15.4,0,0,0,3.63,15.21,15.24,15.24,0,0,0,16.59,3.6L45.34,51.54l-8,8-2.14-2.14a1.5,1.5,0,0,0-2.12,0L12.44,78a1.5,1.5,0,0,0,0,2.12l6.4,6.4a1.5,1.5,0,0,0,2.12,0L41.56,66a1.5,1.5,0,0,0,0-2.12L39.42,61.7l8-8,29,30a5.84,5.84,0,0,0,4.14,1.8h.1a5.84,5.84,0,0,0,4.1-1.67A5.92,5.92,0,0,0,84.84,75.49ZM79.72,17.4l2.88,2.88-4.89,7.82-5.81-5.81Zm-59.82,66L15.62,79.1,34.1,60.62l4.28,4.28Zm62.72-1.7a2.9,2.9,0,0,1-2.05.82,2.86,2.86,0,0,1-2-.88L33.83,35.3A1.5,1.5,0,0,0,32.1,35,12.25,12.25,0,0,1,18,32.45a12.39,12.39,0,0,1-3.43-9.56l4.83,5a1.5,1.5,0,0,0,1.45.41l7.44-1.87a1.5,1.5,0,0,0,1.08-1l2.1-7.4a1.5,1.5,0,0,0-.36-1.45l-4.84-5a12.34,12.34,0,0,1,11.5,18A1.5,1.5,0,0,0,38,31.26L82.68,77.57A2.92,2.92,0,0,1,82.62,81.68Z"/></svg>