<?xml version="1.0" encoding="iso-8859-1"?>
<!-- Generator: Adobe Illustrator 21.0.0, SVG Export Plug-In . SVG Version: 6.00 Build 0)  -->
<svg version="1.1" id="Layer_1" xmlns="http://www.w3.org/2000/svg" xmlns:xlink="http://www.w3.org/1999/xlink" x="0px" y="0px"
	 viewBox="0 0 100.354 100.352" style="enable-background:new 0 0 100.354 100.352;" xml:space="preserve">
<g>
	<path style="fill:#231F20;" d="M50.309,82.309c-4.271,0-7.745-3.474-7.745-7.744c0-4.271,3.474-7.745,7.745-7.745
		c4.275,0,7.752,3.474,7.752,7.745C58.061,78.835,54.584,82.309,50.309,82.309z M50.309,69.821c-2.616,0-4.745,2.128-4.745,4.745
		c0,2.616,2.128,4.744,4.745,4.744c2.621,0,4.752-2.128,4.752-4.744C55.061,71.949,52.93,69.821,50.309,69.821z"/>
	<path style="fill:#231F20;" d="M30.889,60.572c-0.31,0-0.622-0.095-0.89-0.293c-0.667-0.492-0.808-1.431-0.315-2.098
		c4.82-6.53,12.531-10.428,20.626-10.428c7.848,0,15.155,3.526,20.05,9.675c0.516,0.648,0.409,1.592-0.24,2.108
		c-0.647,0.517-1.591,0.408-2.108-0.24c-4.321-5.43-10.774-8.543-17.702-8.543c-7.253,0-13.892,3.357-18.213,9.21
		C31.802,60.362,31.348,60.572,30.889,60.572z"/>
	<path style="fill:#231F20;" d="M19.061,49.108c-0.336,0-0.675-0.113-0.955-0.344c-0.638-0.528-0.728-1.473-0.2-2.112
		c8.027-9.707,19.837-15.274,32.402-15.274c12.182,0,23.746,5.278,31.727,14.479c0.542,0.626,0.476,1.573-0.15,2.116
		c-0.625,0.542-1.573,0.475-2.116-0.15c-7.411-8.545-18.148-13.445-29.46-13.445c-11.667,0-22.635,5.17-30.091,14.186
		C19.922,48.923,19.493,49.108,19.061,49.108z"/>
	<path style="fill:#231F20;" d="M8.781,38.802c-0.349,0-0.699-0.121-0.983-0.367c-0.625-0.543-0.692-1.491-0.149-2.116
		C18.387,23.951,33.937,16.857,50.31,16.857c16.033,0,31.374,6.851,42.089,18.795c0.553,0.617,0.501,1.565-0.115,2.118
		s-1.564,0.502-2.118-0.115C80.019,26.344,65.493,19.857,50.311,19.857c-15.503,0-30.227,6.717-40.395,18.429
		C9.617,38.627,9.2,38.802,8.781,38.802z"/>
</g>
</svg>
