<?xml version="1.0" encoding="iso-8859-1"?>
<!-- Generator: Adobe Illustrator 22.0.1, SVG Export Plug-In . SVG Version: 6.00 Build 0)  -->
<svg version="1.1" id="Layer_1" xmlns="http://www.w3.org/2000/svg" xmlns:xlink="http://www.w3.org/1999/xlink" x="0px" y="0px"
	 viewBox="0 0 100.25 100.25" style="enable-background:new 0 0 100.25 100.25;" xml:space="preserve">
<g>
	<path d="M41.5,84.25H19v-48.5c0-0.335-0.113-0.641-0.298-0.89l27.034-23.321l27.274,23.118C73.008,34.688,73,34.718,73,34.75v15
		c0,0.828,0.672,1.5,1.5,1.5s1.5-0.672,1.5-1.5V37.191l10.013,8.487c0.282,0.239,0.626,0.356,0.969,0.356
		c0.426,0,0.849-0.18,1.146-0.53c0.535-0.632,0.457-1.578-0.175-2.114L46.696,8.421c-0.563-0.479-1.391-0.474-1.95,0.008
		L4.354,43.275c-0.627,0.541-0.697,1.488-0.156,2.116c0.54,0.626,1.488,0.696,2.116,0.156L16,37.191V85.75
		c0,0.828,0.671,1.5,1.5,1.5h24c0.829,0,1.5-0.672,1.5-1.5S42.329,84.25,41.5,84.25z"/>
	<path d="M96.248,73.84c-0.454-0.684-11.307-16.736-25.42-16.736c-15.533,0-26.9,16.026-27.377,16.709
		c-0.36,0.516-0.36,1.201,0,1.717c0.477,0.683,11.844,16.708,27.377,16.708c14.113,0,24.965-16.052,25.42-16.735
		C96.584,74.999,96.584,74.343,96.248,73.84z M70.828,89.237c-12.018,0-21.733-11.322-24.271-14.567
		c2.532-3.246,12.229-14.566,24.271-14.566c10.792,0,19.96,11.363,22.33,14.568C90.791,77.878,81.64,89.237,70.828,89.237z"/>
	<path d="M69.841,64.193c-5.539,0-10.045,4.7-10.045,10.478c0,5.778,4.506,10.479,10.045,10.479c5.538,0,10.044-4.701,10.044-10.479
		C79.885,68.894,75.379,64.193,69.841,64.193z M69.841,82.15c-3.885,0-7.045-3.355-7.045-7.479c0-4.123,3.16-7.478,7.045-7.478
		c3.884,0,7.044,3.354,7.044,7.478C76.885,78.795,73.725,82.15,69.841,82.15z"/>
</g>
</svg>
