<?xml version="1.0" encoding="iso-8859-1"?>
<!-- Generator: Adobe Illustrator 21.0.0, SVG Export Plug-In . SVG Version: 6.00 Build 0)  -->
<svg version="1.1" id="Layer_1" xmlns="http://www.w3.org/2000/svg" xmlns:xlink="http://www.w3.org/1999/xlink" x="0px" y="0px"
	 viewBox="0 0 100.353 100.353" style="enable-background:new 0 0 100.353 100.353;" xml:space="preserve">
<g>
	<path style="fill:#231F20;" d="M17.948,34.909c-0.828,0-1.5,0.671-1.5,1.5v27.182c0,0.828,0.672,1.5,1.5,1.5s1.5-0.672,1.5-1.5
		V36.409C19.448,35.581,18.776,34.909,17.948,34.909z"/>
	<path style="fill:#231F20;" d="M81.541,65.091c0.828,0,1.5-0.672,1.5-1.5V36.409c0-0.829-0.672-1.5-1.5-1.5s-1.5,0.671-1.5,1.5
		v27.182C80.041,64.419,80.712,65.091,81.541,65.091z"/>
	<path style="fill:#231F20;" d="M93.948,6.053c-0.586-0.586-1.535-0.586-2.121,0L71.24,26.639H9.557c-0.828,0-1.5,0.671-1.5,1.5
		v43.722c0,0.829,0.672,1.5,1.5,1.5h14.96L6.053,91.824c-0.586,0.586-0.586,1.536,0,2.122c0.293,0.293,0.677,0.439,1.061,0.439
		s0.768-0.146,1.061-0.439L28.76,73.361h60.955c0.828,0,1.5-0.671,1.5-1.5V28.139c0-0.829-0.672-1.5-1.5-1.5H75.483L93.948,8.174
		C94.534,7.589,94.534,6.639,93.948,6.053z M11.057,70.361V29.639H68.24l-7.651,7.65c-2.87-2.395-6.559-3.84-10.58-3.84
		c-9.129,0-16.557,7.424-16.557,16.55c0,4.022,1.446,7.712,3.842,10.583l-9.777,9.777h-16.46V70.361z M39.429,58.45
		c-1.858-2.319-2.976-5.254-2.976-8.45c0-7.472,6.081-13.55,13.557-13.55c3.194,0,6.127,1.118,8.446,2.974L39.429,58.45z
		 M60.577,41.545c1.859,2.32,2.978,5.257,2.978,8.455c0,7.472-6.076,13.55-13.545,13.55c-3.199,0-6.138-1.12-8.459-2.979
		L60.577,41.545z M88.214,29.639v40.722H31.759l7.656-7.656c2.873,2.398,6.566,3.846,10.593,3.846
		c9.123,0,16.545-7.424,16.545-16.55c0-4.025-1.447-7.717-3.844-10.589l9.772-9.772h15.733V29.639z"/>
</g>
</svg>
