<?xml version="1.0" encoding="iso-8859-1"?>
<!-- Generator: Adobe Illustrator 22.0.1, SVG Export Plug-In . SVG Version: 6.00 Build 0)  -->
<svg version="1.1" id="Layer_1" xmlns="http://www.w3.org/2000/svg" xmlns:xlink="http://www.w3.org/1999/xlink" x="0px" y="0px"
	 viewBox="0 0 100.25 100.25" style="enable-background:new 0 0 100.25 100.25;" xml:space="preserve">
<g>
	<circle cx="46" cy="85" r="2"/>
	<path d="M71,28.521V12.75c0-2.481-2.019-4.5-4.5-4.5h-40c-2.481,0-4.5,2.019-4.5,4.5v76c0,2.481,2.019,4.5,4.5,4.5h40
		c2.481,0,4.5-2.019,4.5-4.5V53.237c2.854-2.838,5.747-5.74,7.284-7.352c1.755-1.84,2.719-4.322,2.716-6.989
		C80.993,33.31,76.543,28.747,71,28.521z M26.5,11.25h40c0.827,0,1.5,0.673,1.5,1.5v5.5H25v-5.5C25,11.923,25.673,11.25,26.5,11.25z
		 M66.5,90.25h-40c-0.827,0-1.5-0.673-1.5-1.5v-9.5h43v9.5C68,89.577,67.327,90.25,66.5,90.25z M68,76.25H25v-55h43v7.574
		c-2.468,0.631-4.613,2.151-6.026,4.245c-1.902-2.769-5.087-4.527-8.581-4.531c-0.005,0-0.009,0-0.013,0
		c-2.778,0-5.387,1.08-7.348,3.04c-1.959,1.959-3.037,4.565-3.033,7.337c0.003,2.654,0.958,5.121,2.688,6.944
		c3.679,3.877,14.819,14.753,15.292,15.214c0.292,0.285,0.67,0.427,1.048,0.427c0.38,0,0.76-0.144,1.051-0.43
		c0.05-0.049,2.2-2.161,4.923-4.856V76.25z M76.112,43.815c-2.983,3.129-11.173,11.211-14.089,14.083
		c-2.932-2.87-11.176-10.959-14.16-14.104c-1.2-1.265-1.862-3-1.864-4.884c-0.002-1.969,0.763-3.82,2.154-5.211
		c1.394-1.394,3.25-2.162,5.227-2.162c0.003,0,0.006,0,0.009,0c3.34,0.004,6.281,2.258,7.152,5.481
		c0.177,0.656,0.758,1.101,1.455,1.108c0.681-0.003,1.273-0.463,1.444-1.122c0.845-3.242,3.777-5.505,7.134-5.505
		c0.003,0,0.006,0,0.009,0c4.085,0.005,7.412,3.324,7.417,7.4C78.002,40.791,77.332,42.536,76.112,43.815z"/>
	<path d="M87.369,31.742c-0.418-0.716-1.339-0.955-2.052-0.536c-0.715,0.419-0.955,1.338-0.536,2.053
		c1.122,1.916,1.716,4.108,1.719,6.34c0.004,3.219-1.14,6.197-3.22,8.387c-1.087,1.144-2.603,2.695-4.348,4.461
		c-0.582,0.589-0.576,1.539,0.014,2.121C79.238,54.855,79.619,55,80,55c0.387,0,0.773-0.148,1.067-0.446
		c1.761-1.782,3.29-3.348,4.387-4.502c2.614-2.75,4.051-6.464,4.046-10.457C89.497,36.832,88.76,34.116,87.369,31.742z"/>
</g>
</svg>
