<?xml version="1.0" encoding="iso-8859-1"?>
<!-- Generator: Adobe Illustrator 21.1.0, SVG Export Plug-In . SVG Version: 6.00 Build 0)  -->
<svg version="1.1" id="Layer_1" xmlns="http://www.w3.org/2000/svg" xmlns:xlink="http://www.w3.org/1999/xlink" x="0px" y="0px"
	 viewBox="0 0 100.75 100.75" style="enable-background:new 0 0 100.75 100.75;" xml:space="preserve">
<g>
	<path d="M82.492,22.262c-0.003-0.051-0.008-0.101-0.015-0.151c-0.008-0.049-0.017-0.097-0.029-0.144
		c-0.012-0.047-0.026-0.094-0.043-0.139c-0.017-0.046-0.035-0.091-0.057-0.135c-0.021-0.043-0.043-0.084-0.068-0.124
		c-0.025-0.042-0.052-0.082-0.081-0.121c-0.029-0.038-0.059-0.075-0.091-0.11c-0.032-0.035-0.065-0.069-0.1-0.101
		c-0.036-0.033-0.073-0.064-0.113-0.093c-0.038-0.028-0.076-0.055-0.117-0.079c-0.042-0.026-0.085-0.049-0.129-0.07
		s-0.088-0.04-0.134-0.057c-0.046-0.017-0.092-0.031-0.14-0.043c-0.049-0.013-0.099-0.023-0.15-0.031
		c-0.026-0.004-0.05-0.013-0.076-0.015c-11.916-1.192-21.235-3.615-30.861-11.995C49.663,8.31,48.714,8.376,48.172,9
		c-0.035,0.04-0.061,0.085-0.091,0.128c-9.68,8.352-17.764,10.575-29.23,11.72c-0.767,0.077-1.351,0.722-1.351,1.493v35.131
		c0,0.133,0.018,0.265,0.053,0.393C23.636,80.299,48.169,90.957,49.21,91.4c0.188,0.08,0.388,0.12,0.587,0.12
		c0.197,0,0.396-0.039,0.581-0.117c1.054-0.442,25.868-11.099,31.951-33.537c0.021-0.079,0.037-0.159,0.045-0.241l0.118-1.161
		c0.005-0.05,0.008-0.101,0.008-0.152v-33.97C82.5,22.313,82.494,22.288,82.492,22.262z M79.402,57.195
		C74.152,76.294,53.55,86.63,49.8,88.371c-3.717-1.746-24.02-12.059-29.301-31.103V23.69c10.869-1.203,19.299-3.694,28.853-11.714
		c9.468,7.853,18.992,10.474,30.147,11.709v32.549L79.402,57.195z"/>
	<path d="M64,40.84h-1.44c-0.792-6.643-6.499-11.815-13.409-11.815S36.534,34.197,35.743,40.84h-1.742c-0.828,0-1.5,0.671-1.5,1.5
		v22c0,0.829,0.672,1.5,1.5,1.5h30c0.828,0,1.5-0.671,1.5-1.5v-22C65.5,41.511,64.828,40.84,64,40.84z M49.15,32.025
		c5.252,0,9.604,3.832,10.377,8.815H38.773C39.547,35.857,43.898,32.025,49.15,32.025z M62.5,43.84v19h-27v-19H62.5z"/>
</g>
</svg>
