<svg id="Layer_1" data-name="Layer 1" xmlns="http://www.w3.org/2000/svg" viewBox="0 0 101 101"><title>log_Artboard 2 copy 7</title><path d="M93.24,23.55A1.5,1.5,0,0,0,92.07,23H35a1.5,1.5,0,0,0-1.47,1.19l-11.1,53A1.5,1.5,0,0,0,23.93,79H81a1.5,1.5,0,0,0,1.47-1.19l11.1-53A1.5,1.5,0,0,0,93.24,23.55ZM51.64,26H75.27l-1.7,10H49.94ZM79.75,76h-54L36.25,26H48.59L46.68,37.25A1.5,1.5,0,0,0,48.16,39H74.84a1.5,1.5,0,0,0,1.48-1.25l2-11.75H90.22Z"/><path d="M10.5,28h15a1.5,1.5,0,0,0,0-3h-15a1.5,1.5,0,0,0,0,3Z"/><path d="M9.5,44h13a1.5,1.5,0,0,0,0-3H9.5a1.5,1.5,0,0,0,0,3Z"/><path d="M20.5,56H9.5a1.5,1.5,0,0,0,0,3h11a1.5,1.5,0,0,0,0-3Z"/><path d="M17.5,73h-8a1.5,1.5,0,0,0,0,3h8a1.5,1.5,0,0,0,0-3Z"/><path d="M70.83,51.46A1.5,1.5,0,0,0,69,52.51L65.3,66.11a1.5,1.5,0,1,0,2.89.79L71.88,53.3A1.5,1.5,0,0,0,70.83,51.46Z"/><path d="M57.83,51.46A1.5,1.5,0,0,0,56,52.51L52.3,66.11a1.5,1.5,0,1,0,2.89.79L58.88,53.3A1.5,1.5,0,0,0,57.83,51.46Z"/><path d="M44.83,51.46A1.5,1.5,0,0,0,43,52.51L39.3,66.11a1.5,1.5,0,1,0,2.89.79L45.88,53.3A1.5,1.5,0,0,0,44.83,51.46Z"/></svg>