<?xml version="1.0" encoding="iso-8859-1"?>
<!-- Generator: Adobe Illustrator 21.0.2, SVG Export Plug-In . SVG Version: 6.00 Build 0)  -->
<svg version="1.1" id="Layer_1" xmlns="http://www.w3.org/2000/svg" xmlns:xlink="http://www.w3.org/1999/xlink" x="0px" y="0px"
	 viewBox="0 0 100.5 100.5" style="enable-background:new 0 0 100.5 100.5;" xml:space="preserve">
<path d="M63.431,39.021l-16.88,18.908l-8.566-8.565c-0.586-0.586-1.535-0.586-2.121,0s-0.586,1.535,0,2.121l9.688,9.688
	c0.281,0.282,0.663,0.439,1.061,0.439c0.014,0,0.028,0,0.042-0.001c0.413-0.012,0.802-0.192,1.077-0.5L65.67,41.019
	c0.552-0.618,0.498-1.566-0.12-2.118C64.93,38.35,63.984,38.404,63.431,39.021z"/>
<path d="M92.075,50c0.028-0.114,0.047-0.232,0.047-0.355c0-3.998-4.147-6.064-7.807-7.888c-2.598-1.294-5.283-2.633-5.998-4.32
	c-0.728-1.722,0.3-4.528,1.292-7.243c1.384-3.783,2.814-7.694,0.175-10.331c-2.588-2.588-6.372-1.712-10.033-0.861
	c-2.562,0.594-5.213,1.207-6.978,0.461c-1.723-0.729-3.155-2.989-4.54-5.177C56.224,11.117,53.949,7.524,50,7.524
	c-3.956,0-6.188,3.671-8.156,6.911c-1.366,2.249-2.779,4.573-4.5,5.301c-1.759,0.745-4.438,0.07-7.028-0.581
	c-3.69-0.926-7.505-1.888-10.099,0.709c-2.621,2.62-1.351,6.551-0.121,10.354c0.878,2.713,1.785,5.519,1.051,7.256
	c-0.716,1.694-3.282,3.021-5.765,4.305c-3.517,1.818-7.504,3.879-7.504,7.868c0,0.124,0.02,0.243,0.048,0.358
	c-0.028,0.114-0.047,0.232-0.047,0.355c0,3.989,3.987,6.05,7.505,7.868c2.481,1.283,5.048,2.61,5.764,4.304
	c0.734,1.737-0.173,4.543-1.051,7.257c-1.229,3.802-2.5,7.732,0.12,10.353c2.596,2.597,6.411,1.638,10.1,0.709
	c2.591-0.65,5.271-1.323,7.029-0.579c1.72,0.727,3.133,3.051,4.499,5.299c1.969,3.239,4.2,6.91,8.156,6.91
	c3.949,0,6.225-3.593,8.233-6.762c1.386-2.188,2.818-4.448,4.538-5.177c1.772-0.748,4.418-0.134,6.979,0.461
	c3.659,0.849,7.445,1.729,10.031-0.86c2.642-2.638,1.211-6.55-0.173-10.332c-0.993-2.715-2.02-5.521-1.293-7.241
	c0.716-1.688,3.401-3.027,5.999-4.321c3.659-1.823,7.807-3.89,7.807-7.888C92.123,50.234,92.103,50.115,92.075,50z M82.978,55.56
	c-3.085,1.537-6.275,3.127-7.424,5.838c-1.187,2.81,0.046,6.181,1.238,9.44c1.108,3.031,2.156,5.896,0.869,7.18
	c-1.409,1.412-4.239,0.755-7.232,0.061c-3.028-0.702-6.159-1.429-8.825-0.302c-2.585,1.094-4.272,3.758-5.904,6.334
	c-1.749,2.76-3.401,5.367-5.699,5.367c-2.269,0-3.883-2.656-5.593-5.468c-1.613-2.655-3.282-5.401-5.894-6.504
	c-2.685-1.138-5.858-0.34-8.93,0.433c-3.01,0.755-5.853,1.473-7.246,0.079c-1.323-1.322-0.383-4.23,0.612-7.309
	c1.047-3.235,2.128-6.581,0.96-9.348c-1.138-2.692-4.194-4.272-7.149-5.801c-3.025-1.563-5.883-3.04-5.883-5.203
	c0-0.124-0.02-0.243-0.048-0.359c0.028-0.114,0.047-0.232,0.047-0.355c0-2.163,2.857-3.64,5.882-5.203
	c2.956-1.528,6.013-3.108,7.15-5.802c1.168-2.766,0.087-6.111-0.96-9.347c-0.995-3.079-1.936-5.987-0.611-7.31
	c1.39-1.393,4.233-0.677,7.245,0.08c3.07,0.771,6.243,1.572,8.929,0.434c2.612-1.104,4.281-3.85,5.896-6.505
	c1.709-2.813,3.323-5.469,5.592-5.469c2.298,0,3.95,2.607,5.698,5.368c1.633,2.576,3.32,5.24,5.906,6.335
	c2.666,1.127,5.797,0.4,8.825-0.303c2.993-0.694,5.822-1.351,7.233,0.062c1.285,1.283,0.237,4.147-0.871,7.179
	c-1.192,3.26-2.425,6.631-1.237,9.442c1.147,2.71,4.338,4.3,7.423,5.837c3.16,1.574,6.145,3.062,6.145,5.202
	c0,0.124,0.02,0.243,0.048,0.358c-0.028,0.114-0.047,0.232-0.047,0.355C89.123,52.499,86.138,53.986,82.978,55.56z"/>
</svg>
