<?xml version="1.0" encoding="iso-8859-1"?>
<!-- Generator: Adobe Illustrator 21.1.0, SVG Export Plug-In . SVG Version: 6.00 Build 0)  -->
<svg version="1.1" id="Layer_1" xmlns="http://www.w3.org/2000/svg" xmlns:xlink="http://www.w3.org/1999/xlink" x="0px" y="0px"
	 viewBox="0 0 100.353 100.353" style="enable-background:new 0 0 100.353 100.353;" xml:space="preserve">
<path d="M85.004,25.102H68.53c2.131-3.23,2.462-6.664,0.66-8.993c-0.938-1.215-2.355-1.976-4.098-2.198
	c-2.913-0.374-6.436,0.796-9.433,3.119c-1.681,1.298-3.022,2.82-3.961,4.406c-0.944-1.595-2.294-3.123-3.953-4.404
	c-4.995-3.867-10.943-4.273-13.545-0.922c-1.797,2.33-1.465,5.764,0.663,8.993H18.39c-0.829,0-1.5,0.671-1.5,1.5v15.781
	c0,0.829,0.671,1.5,1.5,1.5h3.463v39.412c0,0.828,0.671,1.5,1.5,1.5h56.693c0.828,0,1.5-0.672,1.5-1.5V43.883h3.458
	c0.828,0,1.5-0.671,1.5-1.5V26.602C86.504,25.773,85.832,25.102,85.004,25.102z M57.495,19.403c2.35-1.821,5.122-2.785,7.216-2.516
	c0.949,0.121,1.656,0.476,2.104,1.057c1.222,1.58,0.295,4.586-2.123,7.159H53.38C53.86,23.188,55.367,21.046,57.495,19.403z
	 M36.573,17.945c1.491-1.92,5.854-1.237,9.336,1.459c2.123,1.641,3.632,3.773,4.113,5.698H38.697
	C36.284,22.529,35.358,19.522,36.573,17.945z M19.89,28.102h30.309v12.781H19.89V28.102z M24.853,43.883h25.346v37.912H24.853
	V43.883z M78.546,81.795H53.199V43.883h25.347V81.795z M83.504,40.883H53.199V28.102h12.129c0.001,0,0.001,0,0.002,0h18.174V40.883z
	"/>
</svg>
