<?xml version="1.0" encoding="iso-8859-1"?>
<!-- Generator: Adobe Illustrator 21.0.0, SVG Export Plug-In . SVG Version: 6.00 Build 0)  -->
<svg version="1.1" id="Layer_1" xmlns="http://www.w3.org/2000/svg" xmlns:xlink="http://www.w3.org/1999/xlink" x="0px" y="0px"
	 viewBox="0 0 100.353 100.352" style="enable-background:new 0 0 100.353 100.352;" xml:space="preserve">
<g>
	<path d="M89.779,12.839h-53.31V34.82H12.486v43.003h13.396l13.784,14.578l0.007-14.578H68.24v-21.98h21.539L89.779,12.839
		L89.779,12.839z M65.241,74.824H36.676l-0.005,10.042l-9.496-10.042H15.487V37.821H36.47v18.023h11.528v13.503l13.758-13.503h3.485
		L65.241,74.824L65.241,74.824z M86.779,52.844h-26.25l-9.532,9.355v-9.355H39.469V15.839h47.31L86.779,52.844L86.779,52.844z"/>
	<path d="M50.616,29.348c0.005,0,0.01,0,0.015,0c2.401-0.01,4.349-1.973,4.34-4.374c-0.004-1.164-0.461-2.257-1.288-3.077
		s-1.934-1.262-3.086-1.265c-1.165,0.004-2.258,0.461-3.078,1.289c-0.82,0.827-1.269,1.922-1.263,3.085
		C46.266,27.404,48.22,29.348,50.616,29.348z M49.649,24.034c0.255-0.258,0.596-0.4,0.959-0.401c0.002,0,0.004,0,0.006,0
		c0.36,0,0.7,0.14,0.956,0.394c0.257,0.256,0.399,0.596,0.401,0.958c0.002,0.749-0.604,1.36-1.352,1.364c-0.002,0-0.003,0-0.005,0
		c-0.747,0-1.355-0.606-1.359-1.354C49.254,24.632,49.393,24.291,49.649,24.034z"/>
	<path d="M64.123,29.348c0.005,0,0.01,0,0.015,0c1.165-0.005,2.257-0.463,3.077-1.289c0.82-0.826,1.269-1.922,1.263-3.086
		c-0.004-1.163-0.461-2.255-1.287-3.075c-0.826-0.821-1.912-1.279-3.085-1.265c-1.166,0.004-2.26,0.462-3.081,1.289
		c-0.82,0.826-1.268,1.922-1.263,3.085C59.773,27.404,61.727,29.348,64.123,29.348z M63.156,24.035
		c0.256-0.258,0.597-0.4,0.962-0.402c0.002,0,0.004,0,0.006,0c0.359,0,0.698,0.14,0.953,0.394c0.257,0.255,0.399,0.596,0.401,0.958
		v0.002c0.001,0.362-0.138,0.703-0.393,0.96c-0.255,0.258-0.596,0.4-0.958,0.402c-0.002,0-0.003,0-0.005,0
		c-0.747,0-1.355-0.606-1.359-1.354C62.762,24.632,62.901,24.291,63.156,24.035z"/>
</g>
</svg>
